<?xml version="1.0" encoding="utf-8"?>
<!-- Svg Vector Icons : http://www.onlinewebfonts.com/icon -->
<!DOCTYPE svg PUBLIC "-//W3C//DTD SVG 1.1//EN" "http://www.w3.org/Graphics/SVG/1.1/DTD/svg11.dtd">
<svg version="1.1" xmlns="http://www.w3.org/2000/svg" xmlns:xlink="http://www.w3.org/1999/xlink" x="0px" y="0px" viewBox="0 0 256 256" enable-background="new 0 0 256 256" xml:space="preserve">
<metadata> Svg Vector Icons : http://www.onlinewebfonts.com/icon </metadata>
<g><g><path fill="#000000" d="M129.9,10h-3.7C62,10,10,62,10,126.1v3.7C10,194,62,246,126.1,246h3.7C194,246,246,194,246,129.9v-3.7C246,62,194,10,129.9,10L129.9,10z M111.7,144.9c3.6,4.3,12.8,15.3,16.4,19.6c1.5,2.3-0.1,7.3-1.9,12.7c-0.3,1.1-0.5,0.6-2.8-2c-5.4-6.3-10.5-13-15.7-19.4c-1.5-1.8-2.4-2.8-3-3L111.7,144.9L111.7,144.9z M127.3,122.1c4.2,0.1,6.3,5,7,9c0.2,1.1,1.2,1,0,1c-5.4,0-14.7,0-20,0c-4.1,0-6,0.8-6.2,5.2c-0.1,2.8-1,5.6-1.5,8.4l-3.4,11.2c-2.8,7.4-6,14.6-11.1,20.7c-5.1,6.1-12.1,6.9-19.3,7.2c-1.1,0-2.7,0.2-3.1-1.3c-0.4-1.4,1-2.1,1.9-2.9c7.6-6.2,13.8-13.7,18.4-22.3c3.8-7,6-14.5,7.3-22.4c0.5-3.4-0.7-4.1-3.9-4c-5.9,0.2-17.1-0.1-23,0c-0.2,0,0.2-0.5,0.5-2.2c0.6-4.5,4.2-7.8,7.5-7.8c5.1,0.1,10.9-0.2,16,0c3.3,0.1,4.6-1.5,4.6-4.9c-0.1-7.7,0.1-15.5,0.3-23.2c0.1-2.2-0.8-2.8-2.8-3c-6.7-0.6-7.4-0.2-10.6,6c-2.6,5.1-8,8-13.4,9.3c-2.9,0.7-2.6,0.6-2.3-0.3c4.3-10.2,9-23.3,13.1-33.6c1.7-4.2,8.8-7.3,12.9-9.7c0,0,1-0.7,0,2.2c-1,3.2-2.3,9-3.5,12.1c-1.2,3.3-0.6,5,2.7,4.9c9.8-0.1,20.2,0,30,0c2.3,0,4.3-0.4,5.7,2.1c4.7,8.1,3.7,6.7-0.9,6.8c-3.9,0.1-11,0.1-14.9,0c-3-0.1-4.2,0.9-4.6,4.1c-0.8,7.9-0.2,15.8-0.9,23.6c-0.2,2.8,1.7,3.4,3.6,3.4C118.5,122.1,122.2,122.1,127.3,122.1L127.3,122.1L127.3,122.1z M139.3,83.1h51v91.1h-23l-15.1,11l-2.9-11h-10V83.1L139.3,83.1L139.3,83.1z M180.4,165.2L180.4,165.2h-10l-14.2,9.1l-2.9-9.1h-4v-73h31L180.4,165.2L180.4,165.2z"/></g></g>
</svg>